<?xml version="1.0" encoding="utf-8"?>
<!-- Generator: Adobe Illustrator 23.0.1, SVG Export Plug-In . SVG Version: 6.00 Build 0)  -->
<svg version="1.1" id="car-7" xmlns="http://www.w3.org/2000/svg" xmlns:xlink="http://www.w3.org/1999/xlink" x="0px" y="0px"
	 viewBox="0 0 271.1000061 97.4000015" enable-background="new 0 0 271.1000061 97.4000015" xml:space="preserve">

	<defs>
		<style>
					

			@-webkit-keyframes sharfMove {
				0% {
				 transform-origin: 50% 20%;
				 transform: rotate(0deg);
				 
				 
				}
				50% {
				 transform-origin: 50% 20%;
				 transform: rotate(30deg);
				 
				}
				100% {
				 transform-origin: 50% 20%;
				 transform: rotate(0deg);
				}
	  		} 

					#car-7.animate #sharf-2{
						-webkit-animation: sharfMove 2s linear infinite;
					}
		
		</style>
		<script type="text/javascript">
			var iconClick = document.getElementById('button3');
			iconClick.addEventListener('click', function(){
				this.classList.toggle('animate');
			})
		</script>
	
	</defs>




<g id="fox-1">
	<g>
		<path fill="#D25627" d="M152.3000031,21.1000004c1-0.2000008,3.5,1.2000008,6-0.1000004
			C162.1000061,19.1000004,160,18.2000008,158.5,17.6000004c-1.5-0.7000008-5.3999939-2-5.8000031-5.6000004
			c-0.3000031-3.6000004-3.3000031-4.5999999-3.3000031-4.5999999S150.7999878,0.4000001,149.5,0
			c-1.3000031-0.4-5.8999939,4.4000001-7.1999969,5.5c-4.1999969,0-8.6999969,5.6000004-8.8000031,12
			c-0.1000061,6.5-3.5,11.2999992-6.9000015,12.7000008C106.8000031,36.6000023,105.5999985,48.5,105.6999969,57.5
			c0,2.4000015,0.3000031,4.4000015,0.6999969,6c-2.0999985-2-5.1999969-8-3.0999985-18.9000015
			c2.5-13.7000008-4.9000015-27.2999992-25.9000015-23.7000008c7.8000031,3.7000008,10.0999985,13.7000008,8.5999985,19.2999992
			c-3.1999969,12.0999985-4.0999985,30,19.2000046,30c2.8000031,0,5,0,6.6999969,0c1.0999985,0,4,0,7.0999985,0
			c4.5,0,9.4000015,0,9.4000015,0c1.8000031,0,4.1999969,0,4.1999969-1.6999969c0-1.9000015-6.8000031-2.5-7.3000031-3
			c0,0,11.3000031-0.9000015,12.1000061-11.7999992c0,0,9.3999939,16.3999977,12.3000031,16.3999977c3,0,5,0,6.8999939,0
			c1.6000061,0,2.3000031-0.9000015,2.3000031-2.1999969C158.8999939,66.5999985,157,66,156,66s-3.1999969,0.3000031-4.5-1.5
			c-6.3999939-8.2999992-6.1999969-14.5999985-6.1999969-17.9000015c0-1.5999985,0.5-2.7000008,1.1999969-3.9000015
			c4.6999969-8.2999992,5.3000031-9.5999985,5.3000031-12.7000008S149.5,23.8999958,149.1000061,23.1999969
			C148.6999969,22.6000004,150.1999969,21.5,152.3000031,21.1000004z"/>
		<path fill="#2C2F38" stroke="#000000" stroke-miterlimit="10" d="M159.6999969,18.2999992
			c0.3999939,0.2999992,0.6000061,0.5,0.6000061,0.7000008c0,0.1000004,0,0.2000008-0.1000061,0.3999996
			c-0.1000061,0.2000008-0.3999939,0.5-0.6999969,0.6000004c-0.1000061,0-0.1000061,0-0.1999969,0
			c-0.5-0.1000004-0.8999939-1-0.8999939-1.2999992C158.3000031,18.5,159,17.8999996,159.6999969,18.2999992z"/>
		<circle fill="#2C2F38" stroke="#000000" stroke-miterlimit="10" cx="149.6000061" cy="12.6000004" r="0.8999968"/>
		<path fill="#FFFFFF" d="M150.1000061,12.6000004c0,0.1999998-0.1999969,0.3000002-0.3999939,0.3000002
			s-0.3999939-0.1000004-0.3999939-0.3000002s0.1999969-0.3000002,0.3999939-0.3000002S150.1000061,12.5,150.1000061,12.6000004z"/>
		<path fill="#FFFFFF" stroke="#D25627" stroke-miterlimit="10" d="M77.1999969,20.8999996
			c0,0,2.1999969,1.2999992,2.8000031,1.7999992c0.5999985,0.5,1.8000031,1.7000008,2.3000031,2.3999996
			c0.4000015,0.6000004,1.3000031,1.7999992,1.5999985,2.5c0.3000031,0.5,0.9000015,2,0.9000015,2L86,31.2999992
			l12.3000031-4.8999996c0,0-1.5-2.2000008-2.1999969-2.7000008c-0.9000015-0.6000004-2.9000015-1.6000004-3.9000015-2
			s-3.0999985-0.8999996-4.0999985-1.1000004c-1.3000031-0.2000008-4.0999985-0.2999992-5.4000015-0.2999992
			C81.3000031,20.3999996,77.1999969,20.8999996,77.1999969,20.8999996z"/>
		<path fill="#FFFFFF" stroke="#D25627" stroke-miterlimit="10" d="M149.3999939,1.1C148.7999878,0.7,147,5.5,147,5.5l1.5,0.8000002
			C148.5,6.3000002,150,1.5,149.3999939,1.1z"/>
	</g>
</g>
<g id="sharf-1">
	<path fill="#1487AF" d="M150.1000061,21.8999996C146.4000092,20,138.2225037,20.0990925,133.2225037,20.0990925
		c-0.3700104,2.1300011-0.7800293,2.6977062-1.1800232,4.1977043c7.6000061-0.5,18.4575195,1.5032024,18.4575195,1.5032024
		S151,22.3999996,150.1000061,21.8999996z"/>
</g>
<g id="sharf-2">
	<path fill="#1487AF" d="M137.6000061,20.2999992c-0.6000061-0.1000004-1.1999969-0.1000004-1.6999969-0.2000008
		c-2.1000061-0.2999992-6.8999939-0.7999992-9.0999985,0.2000008c-4,1.7000008-17.4000015,0.1000004-17.4000015,0.1000004
		L111.6000061,23l0.4000015,1.7000008c0,0,14.4000015,0.5,18.7999954-0.2000008
		c1.3999939-0.2000008,3.1999969-0.2000008,5.1000061-0.1000004
		C136.6000061,22.8999996,138.3000031,22.1000004,137.6000061,20.2999992z"/>
</g>
<g id="weel-2">
	<path fill="#353535" d="M202.1000061,79.3000031C203,89.5,211.5,97.5,221.9000092,97.5
		c10.1000061,0,18.5-7.5999985,19.6999969-17.4000015c0.1000061-0.8000031,0.1999969-1.5999985,0.1999969-2.5
		c0-11-8.8999939-19.9000015-19.8999939-19.9000015s-19.8999939,8.9000015-19.8999939,19.9000015
		C202,78.0999985,202,78.6999969,202.1000061,79.3000031z M234.1999969,75.9000015H228.5
		c-0.1999969-0.5999985-0.3999939-1.1999969-0.6999969-1.8000031L231.9000092,70
		C233.1000061,71.6999969,233.8999939,73.6999969,234.1999969,75.9000015z M231.8000031,85.0999985L227.6999969,81
		c0.3000031-0.5,0.6000061-1.0999985,0.6999969-1.6999969h5.8000031C233.8999939,81.5,233,83.4000015,231.8000031,85.0999985z
		 M223.6000061,89.9000015v-5.6999969c0.6000061-0.1999969,1.1999969-0.4000015,1.6999969-0.6999969l4,4
		C227.6999969,88.8000031,225.6999969,89.5999985,223.6000061,89.9000015L223.6000061,89.9000015z M223.6000061,65.1999969
		c2.1999969,0.3000031,4.1000061,1.0999985,5.8000031,2.4000015l-4,4c-0.5-0.3000031-1.1000061-0.5999985-1.8000031-0.6999969
		V65.1999969z M220.1000061,70.9000015c-0.6000061,0.1999969-1.1999969,0.4000015-1.8000031,0.6999969l-4-4
		C216,66.2999954,217.9000092,65.5,220.1000061,65.1999969V70.9000015z M214.3999939,87.5l4-4
		c0.5,0.3000031,1.1000061,0.5,1.6999969,0.6999969v5.6999969C218,89.5999985,216,88.8000031,214.3999939,87.5z M209.5,79.3000031
		h5.6999969C215.3999939,79.9000015,215.5999908,80.5,215.8999939,81l-4.1000061,4.0999985
		C210.6000061,83.5,209.8000031,81.5,209.5,79.3000031z M215.1999969,75.9000015H209.5
		c0.3000031-2.1999969,1.1000061-4.0999985,2.3999939-5.8000031L216,74.1999969
		C215.6000061,74.6999969,215.3999939,75.1999969,215.1999969,75.9000015L215.1999969,75.9000015z"/>
</g>
<g id="weel-1">
	<path fill="#353535" d="M40.2000008,77.5999985c0,0.5999985,0,1.0999985,0.0999985,1.6999969
		C41.2000008,89.4999924,49.6999969,97.5,60.0999985,97.5c10.0999985,0,18.5-7.5999985,19.7000046-17.4000015
		C79.9000015,79.2999954,80,78.5,80,77.5999985c0-11-8.9000015-19.9000015-19.9000015-19.9000015
		C49.0999985,57.7000008,40.2000008,66.5999985,40.2000008,77.5999985z M72.4000015,75.9000015h-5.6999969
		c-0.1999969-0.5999985-0.4000015-1.1999969-0.6999969-1.8000031L70.1000061,70
		C71.3000031,71.6999969,72.0999985,73.6999969,72.4000015,75.9000015z M70,85.0999985L66,81
		c0.3000031-0.5,0.5999985-1.0999985,0.6999969-1.6999969H72.5C72.0999985,81.5,71.3000031,83.4000015,70,85.0999985z
		 M61.7999992,89.9000015v-5.6999969C62.3999977,84.0000076,63,83.8000031,63.5,83.5000076l4,4
		C65.9000015,88.8000031,64,89.5999985,61.7999992,89.9000015L61.7999992,89.9000015z M61.7999992,65.1999969
		C64,65.5,65.9000015,66.2999954,67.5999985,67.5999985l-4,4C63.0999985,71.2999954,62.5,71,61.7999992,70.9000015V65.1999969z
		 M58.4000015,70.9000015c-0.5999985,0.1999969-1.2000008,0.4000015-1.7999992,0.6999969l-4-4
		c1.7000008-1.3000031,3.5999985-2.0999985,5.7999992-2.4000015V70.9000015z M52.5999985,87.5l4-4
		c0.5,0.3000031,1.0999985,0.5,1.7000008,0.6999969v5.6999969C56.2000008,89.5999985,54.2999992,88.8000031,52.5999985,87.5z
		 M47.7999992,79.3000031H53.5C53.7000008,79.9000015,53.9000015,80.5,54.2000008,81l-4.0999985,4.0999985
		C48.9000015,83.5,48.0999985,81.5,47.7999992,79.3000031z M47.7999992,75.9000015
		c0.2999992-2.1999969,1.0999985-4.0999985,2.4000015-5.8000031l4.0999985,4.0999985
		C54,74.6999969,53.7000008,75.2999954,53.5999985,76C53.5,75.9000015,47.7999992,75.9000015,47.7999992,75.9000015z"/>
</g>
<g id="car-1">
	<g>
		<g>
			<path fill="#1487AF" d="M262.8999939,52.0999985c-7.8000031-5-40.3999939-10.7000008-69.6999969-12.7999992
				C180.5,33.2000008,168.0999908,27.8999996,159,24.1999989c-3.3000031-2.7999992-6.3999939,4.1000004-2.8999939,9.6999989
				l2.6000061,1.2000008c0,0-2.1000061,2-1.1000061,5.2000008l-43.1999969-2v-6.5c0-1.8999996-1.5-3.3999996-3.4000015-3.3999996
				l-1.9000015-0.1000004c-1.8000031,0-3.3000031,1.2999992-3.5,3.1000004l-0.5999985,5.6999989l-28.7999954-2.2000008
				l-1.1999969-3.8999996c-0.6999969-2.2000008-3.0999985-3.3999996-5.3000031-2.7000008L54,33.4000015
				c0,0-27.1000004,1-49.7999992,20.5999985c-3.3,2.9000015-4.8000002,7.2999992-3.9000001,11.5999985
				C1.7,72.5,5,78.9000015,9.8000002,84.0999985l1.8999996,2.0999985l28,1.0999985
				c-1.2000008-2.4000015-1.9000015-5-2.2000008-7.8000031c0-0.5999985-0.0999985-1.3000031-0.0999985-1.9000015
				c0-12.5,10.2000008-22.7000008,22.7000008-22.7000008s22.7000008,10.2000008,22.7000008,22.7000008
				c0,1-0.0999985,1.9000015-0.1999969,2.9000015c-0.4000015,3.0999985-1.4000015,5.9000015-2.9000015,8.4000015
				l1.6999969,0.0999985l121.7000046,1.1999969c-2.1000061-3.0999985-3.5-6.6999969-3.8000031-10.6999969
				c0-0.5999985-0.1000061-1.3000031-0.1000061-1.9000015c0-12.5,10.1999969-22.7000008,22.6999969-22.7000008
				s22.6999969,10.2000008,22.6999969,22.7000008c0,1-0.1000061,1.9000015-0.1999969,2.9000015
				c-0.5,3.6999969-1.8999939,7.1999969-3.8999939,10.0999985h0.3999939l12.8000031-2.0999985
				c9.3000031-1.5,16.4000092-9.0999985,17.3000031-18.5C271.5,63.4000015,270.7999878,57.2000008,262.8999939,52.0999985z"/>
		</g>
	</g>
</g>
</svg>
